<?xml version="1.0" encoding="utf-8"?>
<!-- Generator: Adobe Illustrator 25.4.1, SVG Export Plug-In . SVG Version: 6.00 Build 0)  -->
<svg version="1.1" id="Слой_1" xmlns="http://www.w3.org/2000/svg" xmlns:xlink="http://www.w3.org/1999/xlink" x="0px" y="0px"
	 viewBox="0 0 40 40" style="enable-background:new 0 0 40 40;" xml:space="preserve">
<path d="M20,5.7c-7.4,0-13.3,6-13.3,13.3s6,13.3,13.3,13.3s13.3-6,13.3-13.3S27.4,5.7,20,5.7z M20,26.2c-0.3,0-0.5-0.1-0.7-0.2
	s-0.4-0.3-0.5-0.6c-0.1-0.2-0.1-0.5-0.1-0.7s0.2-0.5,0.4-0.7c0.2-0.2,0.4-0.3,0.7-0.4c0.2,0,0.5,0,0.7,0.1s0.4,0.3,0.6,0.5
	c0.1,0.2,0.2,0.5,0.2,0.7c0,0.3-0.1,0.7-0.4,0.9C20.7,26,20.3,26.2,20,26.2z M21.4,13.3L21,21.1c0,0.3-0.1,0.5-0.3,0.7
	c-0.2,0.2-0.5,0.3-0.7,0.3s-0.5-0.1-0.7-0.3c-0.2-0.2-0.3-0.5-0.3-0.7l-0.4-7.8c0-0.2,0-0.4,0.1-0.6c0.1-0.2,0.2-0.3,0.3-0.5
	s0.3-0.2,0.5-0.3s0.4-0.1,0.5-0.1c0.2,0,0.4,0,0.5,0.1c0.2,0.1,0.3,0.2,0.5,0.3c0.1,0.1,0.2,0.3,0.3,0.5
	C21.4,12.9,21.4,13.1,21.4,13.3z"/>
</svg>
